<svg width="276" height="58" viewBox="0 0 276 58" fill="none" xmlns="http://www.w3.org/2000/svg">
<path d="M28.2 13.6C26.2 11 23.1 9.49995 19.8 9.49995C13.9 9.49995 10 14 10 19.7C10 25.5 14 29.7 20 29.7C23.1 29.7 26.3 28.1999 28.3 25.7999V37.2999C25.1 38.2999 22.8 39 19.9 39C14.8 39 9.9 36.9999 6.1 33.5999C1.9 29.8999 0 25.2 0 19.7C0 14.7 1.9 9.79995 5.4 6.19995C9 2.49995 14.2 0.199951 19.4 0.199951C22.5 0.199951 25.3 0.899951 28.1 2.09995V13.6H28.2Z" fill="black"/>
<path d="M77.3984 1.19995H86.9984L104.498 23.7H104.598V1.19995H114.198V38H104.598L87.0984 15.5H86.9984V38H77.3984V1.19995Z" fill="black"/>
<path d="M135.699 38H126.099V9.29995H118.199V1.19995H143.599V9.29995H135.699V38Z" fill="black"/>
<path d="M178.299 38H166.399L157.399 23.7999H157.299V38H147.699V1.19995H161.999C169.299 1.19995 174.799 4.69995 174.799 12.5C174.799 17.6 171.999 22 166.699 22.9L178.299 38ZM157.299 17.7H158.199C161.299 17.7 164.799 17.1 164.799 13.1C164.799 9.09995 161.299 8.49995 158.199 8.49995H157.299V17.7Z" fill="black"/>
<path d="M189.001 31.6L186.501 38H176.301L190.501 1.19995H200.901L214.801 38H204.601L202.201 31.6H189.001ZM195.701 12.6L191.601 24.2999H199.601L195.701 12.6Z" fill="black"/>
<path d="M240.698 10.7C238.898 9.20005 236.698 8.30005 234.298 8.30005C232.498 8.30005 230.198 9.30005 230.198 11.4C230.198 13.5 232.798 14.4 234.498 14.9L236.898 15.6C241.998 17.1 245.998 19.7001 245.998 25.7001C245.998 29.4001 245.098 33.1 242.198 35.6C239.298 38 235.498 39.1 231.798 39.1C227.198 39.1 222.598 37.5001 218.898 34.9001L222.998 27.2001C225.398 29.3001 228.198 31 231.498 31C233.698 31 236.098 29.9 236.098 27.3C236.098 24.6 232.298 23.7 230.298 23.1C224.298 21.4 220.298 19.8 220.298 12.7C220.298 5.20005 225.598 0.300049 232.998 0.300049C236.698 0.300049 241.298 1.50005 244.498 3.30005L240.698 10.7Z" fill="black"/>
<path d="M267.602 38H258.002V9.29995H250.102V1.19995H275.502V9.29995H267.602V38Z" fill="black"/>
<path d="M62.2008 46.1C63.6008 46.1 64.9008 46.6 65.9008 47.4C66.0008 47.5 66.0008 47.6 66.0008 47.7C65.9008 47.8 65.8008 47.8 65.7008 47.7C64.8008 47 63.6008 46.5 62.3008 46.5C59.3008 46.5 56.8008 48.9 56.8008 51.8C56.8008 54.8 59.3008 57.1 62.3008 57.1C63.6008 57.1 64.8008 56.7 65.7008 56C65.8008 55.9 65.9008 55.9 66.0008 56C66.1008 56.1 66.0008 56.2 65.9008 56.3C64.9008 57.1 63.6008 57.5 62.2008 57.5C59.0008 57.5 56.3008 54.9 56.3008 51.7C56.3008 48.7 58.9008 46.1 62.2008 46.1Z" fill="black"/>
<path d="M90.1992 46.1C93.2992 46.1 95.6992 48.7 95.6992 51.9C95.6992 55.2 93.1992 57.8 90.1992 57.8C87.0992 57.8 84.6992 55.2 84.6992 51.9C84.6992 48.7 87.0992 46.1 90.1992 46.1ZM90.1992 57.4C92.9992 57.4 95.2992 55 95.2992 52C95.2992 49 92.9992 46.6 90.1992 46.6C87.3992 46.6 85.0992 49 85.0992 52C85.0992 55 87.3992 57.4 90.1992 57.4Z" fill="black"/>
<path d="M123.301 47.1L119.201 52.8C119.201 52.9 119.101 52.9001 119.001 52.9001C118.901 52.9001 118.901 52.9 118.801 52.8L114.701 47V57.3C114.701 57.4 114.601 57.5 114.501 57.5C114.401 57.5 114.301 57.4 114.301 57.3V46.5C114.301 46.4 114.401 46.3 114.501 46.3C114.501 46.3 114.501 46.3 114.601 46.3C114.601 46.3 114.701 46.3001 114.701 46.4001L119.001 52.4001L123.301 46.4001L123.401 46.3C123.501 46.3 123.601 46.4 123.601 46.5V57.4001C123.601 57.5001 123.501 57.6 123.401 57.6C123.301 57.6 123.201 57.5001 123.201 57.4001V47.1H123.301Z" fill="black"/>
<path d="M139.602 46.5C139.602 46.4 139.702 46.3 139.802 46.3H143.102C144.802 46.3 146.302 47.7 146.302 49.5C146.302 51.2 144.902 52.6 143.102 52.6H140.002V57.4001C140.002 57.5001 139.902 57.6 139.802 57.6C139.702 57.6 139.602 57.5001 139.602 57.4001V46.5ZM143.102 52.2001C144.602 52.2001 145.802 51 145.802 49.5C145.802 48 144.602 46.7001 143.102 46.7001H140.002V52.2001H143.102Z" fill="black"/>
<path d="M169.302 54.5H163.602L162.502 57.4C162.502 57.5 162.402 57.5 162.302 57.5C162.302 57.5 162.302 57.5 162.202 57.5C162.102 57.5 162.102 57.3 162.102 57.2L166.202 46.2999C166.202 46.1999 166.302 46.2 166.402 46.2C166.502 46.2 166.602 46.2999 166.602 46.2999L170.702 57.2C170.702 57.3 170.702 57.4 170.602 57.5C170.602 57.5 170.602 57.5 170.502 57.5C170.402 57.5 170.302 57.4 170.302 57.4L169.302 54.5ZM163.802 54.0999H169.102L166.402 47L163.802 54.0999Z" fill="black"/>
<path d="M187.099 47.1V57.4C187.099 57.5 186.999 57.6 186.899 57.6C186.799 57.6 186.699 57.5 186.699 57.4V46.6C186.699 46.5 186.699 46.5 186.799 46.4C186.899 46.3 186.999 46.4 187.099 46.4L194.599 56.8V46.6C194.599 46.5 194.699 46.4 194.799 46.4C194.899 46.4 194.999 46.5 194.999 46.6V57.4C194.999 57.5 194.899 57.6 194.799 57.6C194.699 57.6 194.599 57.5 194.599 57.5L187.099 47.1Z" fill="black"/>
<path d="M214.802 52.1L210.802 46.6C210.702 46.5 210.702 46.4 210.802 46.3C210.902 46.2 211.002 46.3 211.102 46.3L215.002 51.6L218.802 46.3C218.902 46.2 219.002 46.2 219.102 46.3C219.202 46.4 219.202 46.5 219.202 46.6L215.202 52.1V57.4C215.202 57.5 215.102 57.6 215.002 57.6C214.902 57.6 214.802 57.5 214.802 57.4V52.1Z" fill="black"/>
<path d="M52.5984 36.3C43.3984 36.3 35.8984 28.8 35.8984 19.6C35.8984 10.4 43.3984 2.90002 52.5984 2.90002C61.7984 2.90002 69.2984 10.4 69.2984 19.6C69.2984 28.8 61.7984 36.3 52.5984 36.3ZM52.5984 3.90002C43.8984 3.90002 36.7984 11 36.7984 19.7C36.7984 28.4 43.8984 35.5 52.5984 35.5C61.2984 35.5 68.3984 28.4 68.3984 19.7C68.2984 10.9 61.2984 3.90002 52.5984 3.90002Z" fill="black"/>
<path d="M52.5984 37.9C42.4984 37.9 34.3984 29.7 34.3984 19.7C34.3984 9.6 42.5984 1.5 52.5984 1.5C62.6984 1.5 70.7984 9.7 70.7984 19.7C70.7984 29.7 62.6984 37.9 52.5984 37.9ZM52.5984 1.9C42.7984 1.9 34.7984 9.9 34.7984 19.7C34.7984 29.5 42.7984 37.5 52.5984 37.5C62.3984 37.5 70.3984 29.5 70.3984 19.7C70.3984 9.8 62.3984 1.9 52.5984 1.9Z" fill="black"/>
<path d="M52.6 39.3C41.8 39.3 33 30.5 33 19.6C33 8.8 41.8 0 52.6 0C63.4 0 72.2 8.8 72.2 19.6C72.2 30.5 63.4 39.3 52.6 39.3ZM52.6 0.5C42 0.5 33.4 9.1 33.4 19.6C33.4 30.2 42 38.8 52.6 38.8C63.2 38.8 71.8 30.2 71.8 19.6C71.8 9.1 63.2 0.5 52.6 0.5Z" fill="black"/>
<path d="M52.7992 5.69995C60.0992 5.69995 65.8992 11.9 65.9992 19.6C65.8992 27.3 60.0992 33.5 52.7992 33.5C45.4992 33.5 39.6992 27.3 39.6992 19.6C39.6992 11.9 45.4992 5.69995 52.7992 5.69995ZM52.7992 32.5C59.3992 32.4 64.7992 26.7 64.8992 19.6C64.8992 12.4 59.3992 6.69995 52.7992 6.69995C46.1992 6.69995 40.6992 12.4 40.6992 19.6C40.6992 26.7 46.1992 32.4 52.7992 32.5Z" fill="black"/>
</svg>
